<svg width="12" height="13" viewBox="0 0 12 13" fill="none" xmlns="http://www.w3.org/2000/svg">
<rect x="0.56875" y="0.875391" width="10.9688" height="10.9688" rx="2.55938" stroke="#FEFFFF" stroke-width="0.73125"/>
<path d="M8.58431 6.40956C8.60836 6.4336 8.62743 6.46213 8.64045 6.49354C8.65346 6.52495 8.66016 6.55861 8.66016 6.59261C8.66016 6.62661 8.65346 6.66027 8.64045 6.69168C8.62743 6.72309 8.60836 6.75162 8.58431 6.77566L6.2392 9.12077C6.19572 9.16412 6.14072 9.18897 6.08404 9.19505C6.00795 9.20411 5.92849 9.17952 5.87 9.12116L3.52152 6.77268C3.47297 6.72415 3.44569 6.65832 3.44568 6.58968C3.44567 6.52104 3.47292 6.4552 3.52145 6.40665C3.56998 6.35811 3.63581 6.33083 3.70445 6.33081C3.7731 6.3308 3.83893 6.35806 3.88748 6.40659L5.79106 8.31004L5.79106 3.78079C5.79106 3.71215 5.81833 3.64631 5.86687 3.59778C5.9154 3.54924 5.98123 3.52197 6.04987 3.52197C6.11852 3.52197 6.18435 3.54924 6.23288 3.59778C6.28142 3.64631 6.30869 3.71215 6.30869 3.78079L6.30869 8.31935L8.21809 6.40956C8.24213 6.38552 8.27066 6.36645 8.30207 6.35343C8.33348 6.34042 8.36714 6.33372 8.40114 6.33372C8.43514 6.33372 8.4688 6.34042 8.50021 6.35343C8.53161 6.36645 8.56015 6.38552 8.58418 6.40956L8.58431 6.40956Z" fill="#FEFFFF"/>
</svg>
