<svg width="14" height="15" viewBox="0 0 14 15" fill="none" xmlns="http://www.w3.org/2000/svg">
<path d="M5.21641 4.64385H9.60391C9.79785 4.64385 9.98384 4.56681 10.121 4.42967C10.2581 4.29253 10.3352 4.10654 10.3352 3.9126C10.3352 3.71866 10.2581 3.53266 10.121 3.39553C9.98384 3.25839 9.79785 3.18135 9.60391 3.18135H5.21641C5.02247 3.18135 4.83647 3.25839 4.69933 3.39553C4.5622 3.53266 4.48516 3.71866 4.48516 3.9126C4.48516 4.10654 4.5622 4.29253 4.69933 4.42967C4.83647 4.56681 5.02247 4.64385 5.21641 4.64385ZM3.75391 7.56885H9.60391C9.79785 7.56885 9.98384 7.49181 10.121 7.35467C10.2581 7.21753 10.3352 7.03154 10.3352 6.8376C10.3352 6.64366 10.2581 6.45766 10.121 6.32053C9.98384 6.18339 9.79785 6.10635 9.60391 6.10635H3.75391C3.55997 6.10635 3.37397 6.18339 3.23683 6.32053C3.0997 6.45766 3.02266 6.64366 3.02266 6.8376C3.02266 7.03154 3.0997 7.21753 3.23683 7.35467C3.37397 7.49181 3.55997 7.56885 3.75391 7.56885ZM3.75391 10.4938H9.60391C9.79785 10.4938 9.98384 10.4168 10.121 10.2797C10.2581 10.1425 10.3352 9.95654 10.3352 9.7626C10.3352 9.56866 10.2581 9.38266 10.121 9.24553C9.98384 9.10839 9.79785 9.03135 9.60391 9.03135H3.75391C3.55997 9.03135 3.37397 9.10839 3.23683 9.24553C3.0997 9.38266 3.02266 9.56866 3.02266 9.7626C3.02266 9.95654 3.0997 10.1425 3.23683 10.2797C3.37397 10.4168 3.55997 10.4938 3.75391 10.4938ZM12.5289 0.256348H0.828906C0.634967 0.256348 0.44897 0.33339 0.311834 0.470526C0.174698 0.607662 0.0976563 0.793658 0.0976562 0.987598V14.1501C0.0976562 14.2859 0.135473 14.419 0.206868 14.5345C0.278263 14.6501 0.380416 14.7434 0.501881 14.8041C0.623346 14.8649 0.759324 14.8906 0.894577 14.8784C1.02983 14.8662 1.15901 14.8166 1.26766 14.7351L2.78134 13.6017L4.28772 14.7351C4.4143 14.83 4.56825 14.8813 4.72647 14.8813C4.88469 14.8813 5.03864 14.83 5.16522 14.7351L6.67891 13.6017L8.19259 14.7351C8.31917 14.83 8.47312 14.8813 8.63134 14.8813C8.78957 14.8813 8.94352 14.83 9.0701 14.7351L10.5765 13.6017L12.0902 14.7351C12.1993 14.8165 12.329 14.8657 12.4647 14.8774C12.6003 14.889 12.7366 14.8625 12.858 14.8009C12.9786 14.7401 13.08 14.6472 13.151 14.5323C13.222 14.4174 13.2597 14.2851 13.2602 14.1501V0.987598C13.2602 0.793658 13.1831 0.607662 13.046 0.470526C12.9088 0.33339 12.7228 0.256348 12.5289 0.256348ZM11.7977 12.6876L11.0152 12.1026C10.8886 12.0077 10.7347 11.9563 10.5765 11.9563C10.4182 11.9563 10.2643 12.0077 10.1377 12.1026L8.63134 13.236L7.11766 12.1026C6.99108 12.0077 6.83713 11.9563 6.67891 11.9563C6.52069 11.9563 6.36673 12.0077 6.24016 12.1026L4.72647 13.236L3.22009 12.1026C3.09352 12.0077 2.93956 11.9563 2.78134 11.9563C2.62312 11.9563 2.46917 12.0077 2.34259 12.1026L1.56016 12.6876V1.71885H11.7977V12.6876Z" fill="#FCE37E"/>
</svg>
