<svg width="15" height="15" viewBox="0 0 15 15" fill="none" xmlns="http://www.w3.org/2000/svg">
<path fill-rule="evenodd" clip-rule="evenodd" d="M3.45469 9.7623C3.12403 9.7623 2.65684 9.80801 2.17047 9.87462C1.94325 9.90574 1.77 10.079 1.73888 10.3062C1.67227 10.7926 1.62656 11.2598 1.62656 11.5904C1.62656 11.9211 1.67227 12.3883 1.73888 12.8746C1.77 13.1019 1.94325 13.2751 2.17047 13.3062C2.65684 13.3728 3.12403 13.4186 3.45469 13.4186C3.78535 13.4186 4.25254 13.3728 4.7389 13.3062C4.96612 13.2751 5.13938 13.1019 5.1705 12.8746C5.23711 12.3883 5.28281 11.9211 5.28281 11.5904C5.28281 11.2598 5.23711 10.7926 5.1705 10.3062C5.13938 10.079 4.96612 9.90574 4.7389 9.87462C4.25254 9.80801 3.78535 9.7623 3.45469 9.7623ZM1.97203 8.42565C1.0946 8.54581 0.410072 9.23035 0.289905 10.1078C0.220982 10.611 0.164062 11.1576 0.164062 11.5904C0.164062 12.0232 0.220982 12.5698 0.289905 13.0731C0.410072 13.9505 1.0946 14.635 1.97203 14.7552C2.47528 14.8241 3.02191 14.8811 3.45469 14.8811C3.88747 14.8811 4.43409 14.8241 4.93734 14.7552C5.81477 14.635 6.4993 13.9505 6.61947 13.0731C6.68839 12.5698 6.74531 12.0232 6.74531 11.5904C6.74531 11.1576 6.68839 10.611 6.61947 10.1078C6.4993 9.23035 5.81477 8.54581 4.93734 8.42565C4.43409 8.35672 3.88747 8.2998 3.45469 8.2998C3.02191 8.2998 2.47528 8.35672 1.97203 8.42565Z" fill="#436CFB"/>
<path fill-rule="evenodd" clip-rule="evenodd" d="M11.4977 1.71836C11.167 1.71836 10.6998 1.76407 10.2134 1.83068C9.98622 1.86179 9.81297 2.03505 9.78185 2.26227C9.71524 2.74864 9.66953 3.21583 9.66953 3.54648C9.66953 3.87714 9.71524 4.34433 9.78185 4.8307C9.81297 5.05792 9.98622 5.23117 10.2134 5.26229C10.6998 5.3289 11.167 5.37461 11.4977 5.37461C11.8283 5.37461 12.2955 5.3289 12.7819 5.26229C13.0091 5.23117 13.1823 5.05792 13.2135 4.8307C13.2801 4.34433 13.3258 3.87714 13.3258 3.54648C13.3258 3.21583 13.2801 2.74864 13.2135 2.26227C13.1823 2.03505 13.0091 1.86179 12.7819 1.83068C12.2955 1.76407 11.8283 1.71836 11.4977 1.71836ZM10.015 0.381701C9.13757 0.501869 8.45304 1.1864 8.33287 2.06383C8.26395 2.56708 8.20703 3.1137 8.20703 3.54648C8.20703 3.97927 8.26395 4.52589 8.33287 5.02914C8.45304 5.90657 9.13757 6.5911 10.015 6.71127C10.5183 6.78019 11.0649 6.83711 11.4977 6.83711C11.9304 6.83711 12.4771 6.78019 12.9803 6.71127C13.8577 6.5911 14.5423 5.90657 14.6624 5.02914C14.7314 4.52589 14.7883 3.97927 14.7883 3.54648C14.7883 3.1137 14.7314 2.56708 14.6624 2.06383C14.5423 1.1864 13.8577 0.501869 12.9803 0.381701C12.4771 0.312779 11.9304 0.255859 11.4977 0.255859C11.0649 0.255859 10.5183 0.312779 10.015 0.381701Z" fill="#436CFB"/>
<path fill-rule="evenodd" clip-rule="evenodd" d="M3.45469 1.71836C3.12403 1.71836 2.65684 1.76407 2.17047 1.83068C1.94325 1.86179 1.77 2.03505 1.73888 2.26227C1.67227 2.74864 1.62656 3.21583 1.62656 3.54648C1.62656 3.87714 1.67227 4.34433 1.73888 4.8307C1.77 5.05792 1.94325 5.23117 2.17047 5.26229C2.65684 5.3289 3.12403 5.37461 3.45469 5.37461C3.78535 5.37461 4.25254 5.3289 4.7389 5.26229C4.96612 5.23117 5.13938 5.05792 5.1705 4.8307C5.23711 4.34433 5.28281 3.87714 5.28281 3.54648C5.28281 3.21583 5.23711 2.74864 5.1705 2.26227C5.13938 2.03505 4.96612 1.86179 4.7389 1.83068C4.25254 1.76407 3.78535 1.71836 3.45469 1.71836ZM1.97203 0.381701C1.0946 0.501869 0.410072 1.1864 0.289905 2.06383C0.220982 2.56708 0.164062 3.1137 0.164062 3.54648C0.164062 3.97927 0.220982 4.52589 0.289905 5.02914C0.410072 5.90657 1.0946 6.5911 1.97203 6.71127C2.47528 6.78019 3.02191 6.83711 3.45469 6.83711C3.88747 6.83711 4.43409 6.78019 4.93734 6.71127C5.81477 6.5911 6.4993 5.90657 6.61947 5.02914C6.68839 4.52589 6.74531 3.97927 6.74531 3.54648C6.74531 3.1137 6.68839 2.56708 6.61947 2.06383C6.4993 1.1864 5.81477 0.501869 4.93734 0.381701C4.43409 0.312779 3.88747 0.255859 3.45469 0.255859C3.02191 0.255859 2.47528 0.312779 1.97203 0.381701Z" fill="#436CFB"/>
<path fill-rule="evenodd" clip-rule="evenodd" d="M12.3503 9.7623C12.3503 9.45941 12.1047 9.21387 11.8019 9.21387C11.499 9.21387 11.2534 9.45941 11.2534 9.7623V11.3462H9.66953C9.36664 11.3462 9.12109 11.5917 9.12109 11.8946C9.12109 12.1975 9.36664 12.4431 9.66953 12.4431H11.2534V14.0279C11.2534 14.3308 11.499 14.5764 11.8019 14.5764C12.1047 14.5764 12.3503 14.3308 12.3503 14.0279V12.4431H13.9352C14.2381 12.4431 14.4836 12.1975 14.4836 11.8946C14.4836 11.5917 14.2381 11.3462 13.9352 11.3462H12.3503V9.7623Z" fill="#436CFB"/>
</svg>
