<svg width="17" height="15" viewBox="0 0 17 15" fill="none" xmlns="http://www.w3.org/2000/svg">
<path d="M7.74966 3.1777L8.14453 2.74626V5.37145C8.14453 5.56539 8.22157 5.75139 8.35871 5.88852C8.49585 6.02566 8.68184 6.1027 8.87578 6.1027C9.06972 6.1027 9.25572 6.02566 9.39285 5.88852C9.52999 5.75139 9.60703 5.56539 9.60703 5.37145V2.74626L10.0019 3.14845C10.0683 3.22342 10.1494 3.28396 10.2401 3.32631C10.3308 3.36867 10.4293 3.39194 10.5294 3.39468C10.6295 3.39742 10.7291 3.37958 10.822 3.34226C10.9149 3.30493 10.9991 3.24892 11.0695 3.1777C11.1381 3.10972 11.1925 3.02884 11.2296 2.93974C11.2667 2.85063 11.2858 2.75505 11.2858 2.65851C11.2858 2.56198 11.2667 2.4664 11.2296 2.37729C11.1925 2.28818 11.1381 2.20731 11.0695 2.13933L9.39497 0.464764C9.32542 0.39819 9.24342 0.346005 9.15366 0.311201C8.97563 0.238063 8.77594 0.238063 8.59791 0.311201C8.50814 0.346005 8.42614 0.39819 8.35659 0.464764L6.68203 2.11008C6.54046 2.25165 6.46092 2.44367 6.46092 2.64389C6.46092 2.84411 6.54046 3.03613 6.68203 3.1777C6.82361 3.31928 7.01562 3.39881 7.21584 3.39881C7.41606 3.39881 7.60808 3.31928 7.74966 3.1777ZM8.87578 7.5652C8.4419 7.5652 8.01776 7.69386 7.657 7.93491C7.29624 8.17597 7.01506 8.51858 6.84902 8.91944C6.68298 9.32029 6.63954 9.76138 6.72418 10.1869C6.80883 10.6125 7.01776 11.0034 7.32457 11.3102C7.63137 11.617 8.02226 11.8259 8.4478 11.9105C8.87335 11.9952 9.31444 11.9518 9.71529 11.7857C10.1161 11.6197 10.4588 11.3385 10.6998 10.9777C10.9409 10.617 11.0695 10.1928 11.0695 9.75895C11.0695 9.17713 10.8384 8.61914 10.427 8.20773C10.0156 7.79633 9.4576 7.5652 8.87578 7.5652ZM8.87578 10.4902C8.73115 10.4902 8.58977 10.4473 8.46952 10.367C8.34927 10.2866 8.25554 10.1724 8.20019 10.0388C8.14485 9.90517 8.13037 9.75814 8.15858 9.61629C8.1868 9.47444 8.25644 9.34415 8.35871 9.24188C8.46098 9.13961 8.59127 9.06997 8.73312 9.04175C8.87497 9.01354 9.022 9.02802 9.15562 9.08336C9.28924 9.13871 9.40344 9.23244 9.48379 9.35269C9.56414 9.47294 9.60703 9.61432 9.60703 9.75895C9.60703 9.95289 9.52999 10.1389 9.39285 10.276C9.25572 10.4132 9.06972 10.4902 8.87578 10.4902ZM3.75703 9.75895C3.75703 9.90358 3.79992 10.045 3.88027 10.1652C3.96062 10.2855 4.07483 10.3792 4.20844 10.4345C4.34206 10.4899 4.48909 10.5044 4.63094 10.4761C4.77279 10.4479 4.90309 10.3783 5.00535 10.276C5.10762 10.1738 5.17727 10.0435 5.20548 9.90161C5.2337 9.75976 5.21921 9.61273 5.16387 9.47911C5.10852 9.34549 5.0148 9.23129 4.89454 9.15094C4.77429 9.07059 4.63291 9.0277 4.48828 9.0277C4.29434 9.0277 4.10835 9.10474 3.97121 9.24188C3.83407 9.37901 3.75703 9.56501 3.75703 9.75895ZM13.9945 9.75895C13.9945 9.61432 13.9516 9.47294 13.8713 9.35269C13.7909 9.23244 13.6767 9.13871 13.5431 9.08336C13.4095 9.02802 13.2625 9.01354 13.1206 9.04175C12.9788 9.06997 12.8485 9.13961 12.7462 9.24188C12.6439 9.34415 12.5743 9.47444 12.5461 9.61629C12.5179 9.75814 12.5323 9.90517 12.5877 10.0388C12.643 10.1724 12.7368 10.2866 12.857 10.367C12.9773 10.4473 13.1187 10.4902 13.2633 10.4902C13.4572 10.4902 13.6432 10.4132 13.7804 10.276C13.9175 10.1389 13.9945 9.95289 13.9945 9.75895ZM14.7258 4.6402H11.8008C11.6068 4.6402 11.4208 4.71724 11.2837 4.85438C11.1466 4.99152 11.0695 5.17751 11.0695 5.37145C11.0695 5.56539 11.1466 5.75139 11.2837 5.88852C11.4208 6.02566 11.6068 6.1027 11.8008 6.1027H14.7258C14.9197 6.1027 15.1057 6.17974 15.2429 6.31688C15.38 6.45401 15.457 6.64001 15.457 6.83395V12.684C15.457 12.8779 15.38 13.0639 15.2429 13.201C15.1057 13.3382 14.9197 13.4152 14.7258 13.4152H3.02578C2.83184 13.4152 2.64585 13.3382 2.50871 13.201C2.37157 13.0639 2.29453 12.8779 2.29453 12.684V6.83395C2.29453 6.64001 2.37157 6.45401 2.50871 6.31688C2.64585 6.17974 2.83184 6.1027 3.02578 6.1027H5.95078C6.14472 6.1027 6.33072 6.02566 6.46785 5.88852C6.60499 5.75139 6.68203 5.56539 6.68203 5.37145C6.68203 5.17751 6.60499 4.99152 6.46785 4.85438C6.33072 4.71724 6.14472 4.6402 5.95078 4.6402H3.02578C2.44396 4.6402 1.88597 4.87133 1.47457 5.28274C1.06316 5.69414 0.832031 6.25213 0.832031 6.83395V12.684C0.832031 13.2658 1.06316 13.8238 1.47457 14.2352C1.88597 14.6466 2.44396 14.8777 3.02578 14.8777H14.7258C15.3076 14.8777 15.8656 14.6466 16.277 14.2352C16.6884 13.8238 16.9195 13.2658 16.9195 12.684V6.83395C16.9195 6.25213 16.6884 5.69414 16.277 5.28274C15.8656 4.87133 15.3076 4.6402 14.7258 4.6402Z" fill="#83DEA4"/>
</svg>
