<svg width="17" height="15" viewBox="0 0 17 15" fill="none" xmlns="http://www.w3.org/2000/svg">
<path d="M6.94887 3.1777L7.34375 2.74626V5.37145C7.34375 5.56539 7.42079 5.75139 7.55793 5.88852C7.69506 6.02566 7.88106 6.1027 8.075 6.1027C8.26894 6.1027 8.45494 6.02566 8.59207 5.88852C8.72921 5.75139 8.80625 5.56539 8.80625 5.37145V2.74626L9.20113 3.14845C9.2675 3.22342 9.34857 3.28396 9.4393 3.32631C9.53003 3.36867 9.6285 3.39194 9.72859 3.39468C9.82869 3.39742 9.92828 3.37958 10.0212 3.34226C10.1141 3.30493 10.1984 3.24892 10.2688 3.1777C10.3373 3.10972 10.3917 3.02884 10.4288 2.93974C10.4659 2.85063 10.4851 2.75505 10.4851 2.65851C10.4851 2.56198 10.4659 2.4664 10.4288 2.37729C10.3917 2.28818 10.3373 2.20731 10.2688 2.13933L8.59419 0.464764C8.52464 0.39819 8.44264 0.346005 8.35287 0.311201C8.17484 0.238063 7.97516 0.238063 7.79712 0.311201C7.70736 0.346005 7.62536 0.39819 7.55581 0.464764L5.88125 2.11008C5.73967 2.25165 5.66014 2.44367 5.66014 2.64389C5.66014 2.84411 5.73967 3.03613 5.88125 3.1777C6.02283 3.31928 6.21484 3.39881 6.41506 3.39881C6.61528 3.39881 6.8073 3.31928 6.94887 3.1777ZM8.075 7.5652C7.64112 7.5652 7.21698 7.69386 6.85622 7.93491C6.49546 8.17597 6.21428 8.51858 6.04824 8.91944C5.8822 9.32029 5.83876 9.76138 5.9234 10.1869C6.00805 10.6125 6.21698 11.0034 6.52378 11.3102C6.83059 11.617 7.22147 11.8259 7.64702 11.9105C8.07257 11.9952 8.51366 11.9518 8.91451 11.7857C9.31537 11.6197 9.65798 11.3385 9.89904 10.9777C10.1401 10.617 10.2688 10.1928 10.2688 9.75895C10.2688 9.17713 10.0376 8.61914 9.62622 8.20773C9.21481 7.79633 8.65682 7.5652 8.075 7.5652ZM8.075 10.4902C7.93037 10.4902 7.78899 10.4473 7.66874 10.367C7.54849 10.2866 7.45476 10.1724 7.39941 10.0388C7.34407 9.90517 7.32959 9.75814 7.3578 9.61629C7.38602 9.47444 7.45566 9.34415 7.55793 9.24188C7.6602 9.13961 7.79049 9.06997 7.93234 9.04175C8.07419 9.01354 8.22122 9.02802 8.35484 9.08336C8.48846 9.13871 8.60266 9.23244 8.68301 9.35269C8.76336 9.47294 8.80625 9.61432 8.80625 9.75895C8.80625 9.95289 8.72921 10.1389 8.59207 10.276C8.45494 10.4132 8.26894 10.4902 8.075 10.4902ZM2.95625 9.75895C2.95625 9.90358 2.99914 10.045 3.07949 10.1652C3.15984 10.2855 3.27404 10.3792 3.40766 10.4345C3.54128 10.4899 3.68831 10.5044 3.83016 10.4761C3.97201 10.4479 4.1023 10.3783 4.20457 10.276C4.30684 10.1738 4.37648 10.0435 4.4047 9.90161C4.43291 9.75976 4.41843 9.61273 4.36309 9.47911C4.30774 9.34549 4.21401 9.23129 4.09376 9.15094C3.97351 9.07059 3.83213 9.0277 3.6875 9.0277C3.49356 9.0277 3.30756 9.10474 3.17043 9.24188C3.03329 9.37901 2.95625 9.56501 2.95625 9.75895ZM13.1937 9.75895C13.1937 9.61432 13.1509 9.47294 13.0705 9.35269C12.9902 9.23244 12.876 9.13871 12.7423 9.08336C12.6087 9.02802 12.4617 9.01354 12.3198 9.04175C12.178 9.06997 12.0477 9.13961 11.9454 9.24188C11.8432 9.34415 11.7735 9.47444 11.7453 9.61629C11.7171 9.75814 11.7316 9.90517 11.7869 10.0388C11.8423 10.1724 11.936 10.2866 12.0562 10.367C12.1765 10.4473 12.3179 10.4902 12.4625 10.4902C12.6564 10.4902 12.8424 10.4132 12.9796 10.276C13.1167 10.1389 13.1937 9.95289 13.1937 9.75895ZM13.925 4.6402H11C10.8061 4.6402 10.6201 4.71724 10.4829 4.85438C10.3458 4.99152 10.2688 5.17751 10.2688 5.37145C10.2688 5.56539 10.3458 5.75139 10.4829 5.88852C10.6201 6.02566 10.8061 6.1027 11 6.1027H13.925C14.1189 6.1027 14.3049 6.17974 14.4421 6.31688C14.5792 6.45401 14.6562 6.64001 14.6562 6.83395V12.684C14.6562 12.8779 14.5792 13.0639 14.4421 13.201C14.3049 13.3382 14.1189 13.4152 13.925 13.4152H2.225C2.03106 13.4152 1.84506 13.3382 1.70793 13.201C1.57079 13.0639 1.49375 12.8779 1.49375 12.684V6.83395C1.49375 6.64001 1.57079 6.45401 1.70793 6.31688C1.84506 6.17974 2.03106 6.1027 2.225 6.1027H5.15C5.34394 6.1027 5.52994 6.02566 5.66707 5.88852C5.80421 5.75139 5.88125 5.56539 5.88125 5.37145C5.88125 5.17751 5.80421 4.99152 5.66707 4.85438C5.52994 4.71724 5.34394 4.6402 5.15 4.6402H2.225C1.64318 4.6402 1.08519 4.87133 0.673784 5.28274C0.262377 5.69414 0.03125 6.25213 0.03125 6.83395V12.684C0.03125 13.2658 0.262377 13.8238 0.673784 14.2352C1.08519 14.6466 1.64318 14.8777 2.225 14.8777H13.925C14.5068 14.8777 15.0648 14.6466 15.4762 14.2352C15.8876 13.8238 16.1187 13.2658 16.1187 12.684V6.83395C16.1187 6.25213 15.8876 5.69414 15.4762 5.28274C15.0648 4.87133 14.5068 4.6402 13.925 4.6402Z" fill="#A789FF"/>
</svg>
