<svg width="38" height="12" viewBox="0 0 38 12" fill="none" xmlns="http://www.w3.org/2000/svg">
<path d="M16.8378 11.8261H13.8555L15.7209 0.291992H18.7031L16.8378 11.8261Z" fill="white"/>
<path d="M27.6494 0.574063C27.0612 0.340685 26.1281 0.0830078 24.9745 0.0830078C22.0293 0.0830078 19.9553 1.65354 19.9426 3.89892C19.9181 5.55555 21.4275 6.47569 22.5564 7.02806C23.7102 7.59251 24.1024 7.96092 24.1024 8.46404C24.0907 9.23675 23.1701 9.59293 22.3114 9.59293C21.1207 9.59293 20.4827 9.4093 19.5132 8.9794L19.1205 8.79511L18.7031 11.3843C19.4026 11.703 20.6913 11.9857 22.0293 11.9981C25.1586 11.9981 27.1959 10.4519 27.22 8.0591C27.2319 6.74609 26.4349 5.74 24.7166 4.91788C23.6735 4.39013 23.0347 4.03428 23.0347 3.4943C23.0469 3.00341 23.575 2.50061 24.7525 2.50061C25.7221 2.47598 26.4344 2.70903 26.9741 2.94225L27.2438 3.06473L27.6494 0.574063Z" fill="white"/>
<path d="M31.6103 7.74001C31.8559 7.07739 32.801 4.51284 32.801 4.51284C32.7886 4.53747 33.0461 3.83799 33.1934 3.40858L33.4018 4.40243C33.4018 4.40243 33.9666 7.16333 34.0892 7.74001H31.6103ZM35.2917 0.291992H32.9848C32.2734 0.291992 31.733 0.500417 31.426 1.24899L26.9961 11.826H30.1254C30.1254 11.826 30.6406 10.4024 30.7513 10.0958H34.5805C34.6661 10.5007 34.9363 11.826 34.9363 11.826H37.6977L35.2917 0.291992Z" fill="white"/>
<path d="M11.3632 0.291992L8.44249 8.15719L8.12333 6.56203C7.58335 4.72143 5.88985 2.72166 4 1.72732L6.67528 11.8139H9.82905L14.5168 0.291992H11.3632Z" fill="white"/>
<path d="M5.73025 0.291992H0.931901L0.882812 0.525043C4.62582 1.4822 7.10474 3.78939 8.12322 6.56252L7.08012 1.26154C6.90839 0.52488 6.38064 0.316292 5.73025 0.291992Z" fill="white"/>
</svg>
