<svg width="19" height="19" viewBox="0 0 19 19" fill="none" xmlns="http://www.w3.org/2000/svg">
<path d="M14.6031 9.62451H9.48438V4.50576C9.48438 4.06701 9.19187 3.77451 8.75312 3.77451C5.09687 3.77451 2.17188 6.69951 2.17188 10.3558C2.17188 14.012 5.09687 16.937 8.75312 16.937C12.4094 16.937 15.3344 14.012 15.3344 10.3558C15.3344 9.91701 15.0419 9.62451 14.6031 9.62451ZM9.48438 15.4014C6.70563 15.8401 4.07312 13.8658 3.7075 11.087C3.26875 8.30826 5.24312 5.67576 8.02187 5.31014V10.3558C8.02187 10.7945 8.31437 11.087 8.75312 11.087H13.7987C13.5062 13.3539 11.7512 15.1089 9.48438 15.4014ZM11.6781 2.31201C11.2394 2.31201 10.9469 2.60451 10.9469 3.04326V7.43076C10.9469 7.86951 11.2394 8.16201 11.6781 8.16201H16.0656C16.5044 8.16201 16.7969 7.86951 16.7969 7.43076C16.7969 4.57889 14.53 2.31201 11.6781 2.31201ZM12.4094 6.69951V3.84764C13.8719 4.14014 14.9687 5.23701 15.2612 6.69951H12.4094Z" fill="#A4B4CB"/>
</svg>
