<svg width="19" height="19" viewBox="0 0 19 19" fill="none" xmlns="http://www.w3.org/2000/svg">
<path d="M9.48438 5.18672C9.29044 5.18672 9.10444 5.26376 8.9673 5.4009C8.83017 5.53803 8.75312 5.72403 8.75312 5.91797V13.2305C8.75312 13.4244 8.83017 13.6104 8.9673 13.7475C9.10444 13.8847 9.29044 13.9617 9.48438 13.9617C9.67831 13.9617 9.86431 13.8847 10.0014 13.7475C10.1386 13.6104 10.2156 13.4244 10.2156 13.2305V5.91797C10.2156 5.72403 10.1386 5.53803 10.0014 5.4009C9.86431 5.26376 9.67831 5.18672 9.48438 5.18672ZM5.82812 9.57422C5.63419 9.57422 5.44819 9.65126 5.31105 9.7884C5.17392 9.92553 5.09687 10.1115 5.09687 10.3055V13.2305C5.09687 13.4244 5.17392 13.6104 5.31105 13.7475C5.44819 13.8847 5.63419 13.9617 5.82812 13.9617C6.02206 13.9617 6.20806 13.8847 6.3452 13.7475C6.48233 13.6104 6.55937 13.4244 6.55937 13.2305V10.3055C6.55937 10.1115 6.48233 9.92553 6.3452 9.7884C6.20806 9.65126 6.02206 9.57422 5.82812 9.57422ZM13.1406 8.11172C12.9467 8.11172 12.7607 8.18876 12.6236 8.3259C12.4864 8.46303 12.4094 8.64903 12.4094 8.84297V13.2305C12.4094 13.4244 12.4864 13.6104 12.6236 13.7475C12.7607 13.8847 12.9467 13.9617 13.1406 13.9617C13.3346 13.9617 13.5206 13.8847 13.6577 13.7475C13.7948 13.6104 13.8719 13.4244 13.8719 13.2305V8.84297C13.8719 8.64903 13.7948 8.46303 13.6577 8.3259C13.5206 8.18876 13.3346 8.11172 13.1406 8.11172ZM14.6031 2.26172H4.36562C3.78381 2.26172 3.22582 2.49285 2.81441 2.90425C2.403 3.31566 2.17188 3.87365 2.17188 4.45547V14.693C2.17188 15.2748 2.403 15.8328 2.81441 16.2442C3.22582 16.6556 3.78381 16.8867 4.36562 16.8867H14.6031C15.1849 16.8867 15.7429 16.6556 16.1543 16.2442C16.5657 15.8328 16.7969 15.2748 16.7969 14.693V4.45547C16.7969 3.87365 16.5657 3.31566 16.1543 2.90425C15.7429 2.49285 15.1849 2.26172 14.6031 2.26172ZM15.3344 14.693C15.3344 14.8869 15.2573 15.0729 15.1202 15.21C14.9831 15.3472 14.7971 15.4242 14.6031 15.4242H4.36562C4.17169 15.4242 3.98569 15.3472 3.84855 15.21C3.71142 15.0729 3.63437 14.8869 3.63437 14.693V4.45547C3.63437 4.26153 3.71142 4.07553 3.84855 3.9384C3.98569 3.80126 4.17169 3.72422 4.36562 3.72422H14.6031C14.7971 3.72422 14.9831 3.80126 15.1202 3.9384C15.2573 4.07553 15.3344 4.26153 15.3344 4.45547V14.693Z" fill="#A4B4CB"/>
</svg>
