<svg width="19" height="19" viewBox="0 0 19 19" fill="none" xmlns="http://www.w3.org/2000/svg">
<path d="M9.48438 5.90625C9.29044 5.90625 9.10444 5.98329 8.96731 6.12043C8.83017 6.25756 8.75313 6.44356 8.75313 6.6375V9.5625C8.75313 9.75644 8.83017 9.94244 8.96731 10.0796C9.10444 10.2167 9.29044 10.2938 9.48438 10.2938C9.67832 10.2938 9.86431 10.2167 10.0015 10.0796C10.1386 9.94244 10.2156 9.75644 10.2156 9.5625V6.6375C10.2156 6.44356 10.1386 6.25756 10.0015 6.12043C9.86431 5.98329 9.67832 5.90625 9.48438 5.90625ZM10.1571 12.2096C10.1411 12.163 10.119 12.1188 10.0913 12.078L10.0036 11.9683C9.90073 11.8668 9.77015 11.7981 9.6283 11.7708C9.48644 11.7435 9.33967 11.7588 9.2065 11.8148C9.11789 11.8518 9.03627 11.9037 8.96519 11.9683C8.89742 12.0366 8.8438 12.1177 8.80741 12.2068C8.77102 12.2959 8.75257 12.3913 8.75313 12.4875C8.75428 12.5831 8.77416 12.6775 8.81163 12.7654C8.84447 12.8561 8.89687 12.9385 8.96511 13.0068C9.03335 13.075 9.11576 13.1274 9.2065 13.1603C9.29403 13.1989 9.38868 13.2189 9.48438 13.2189C9.58008 13.2189 9.67472 13.1989 9.76225 13.1603C9.853 13.1274 9.93541 13.075 10.0036 13.0068C10.0719 12.9385 10.1243 12.8561 10.1571 12.7654C10.1946 12.6775 10.2145 12.5831 10.2156 12.4875C10.2192 12.4388 10.2192 12.3899 10.2156 12.3413C10.203 12.2946 10.1833 12.2502 10.1571 12.2096ZM9.48438 2.25C8.0381 2.25 6.62431 2.67887 5.42177 3.48238C4.21924 4.28589 3.28198 5.42794 2.72851 6.76413C2.17504 8.10031 2.03023 9.57061 2.31239 10.9891C2.59454 12.4076 3.29099 13.7105 4.31366 14.7332C5.33633 15.7559 6.63929 16.4523 8.05778 16.7345C9.47627 17.0166 10.9466 16.8718 12.2828 16.3184C13.6189 15.7649 14.761 14.8276 15.5645 13.6251C16.368 12.4226 16.7969 11.0088 16.7969 9.5625C16.7969 8.60221 16.6077 7.65132 16.2402 6.76413C15.8728 5.87693 15.3341 5.07081 14.6551 4.39178C13.9761 3.71275 13.1699 3.17412 12.2828 2.80663C11.3956 2.43914 10.4447 2.25 9.48438 2.25ZM9.48438 15.4125C8.32736 15.4125 7.19632 15.0694 6.23429 14.4266C5.27226 13.7838 4.52246 12.8701 4.07968 11.8012C3.63691 10.7323 3.52106 9.55601 3.74678 8.42122C3.97251 7.28643 4.52967 6.24406 5.3478 5.42593C6.16594 4.60779 7.20831 4.05063 8.3431 3.82491C9.47789 3.59918 10.6541 3.71503 11.7231 4.1578C12.792 4.60058 13.7057 5.35039 14.3485 6.31241C14.9913 7.27444 15.3344 8.40548 15.3344 9.5625C15.3344 11.114 14.718 12.602 13.621 13.6991C12.5239 14.7962 11.0359 15.4125 9.48438 15.4125Z" fill="#A4B4CB"/>
</svg>
