<svg width="19" height="18" viewBox="0 0 19 18" fill="none" xmlns="http://www.w3.org/2000/svg">
<path d="M8.025 5.8499H12.4125C12.6064 5.8499 12.7924 5.77286 12.9296 5.63572C13.0667 5.49859 13.1438 5.31259 13.1438 5.11865C13.1438 4.92471 13.0667 4.73872 12.9296 4.60158C12.7924 4.46444 12.6064 4.3874 12.4125 4.3874H8.025C7.83106 4.3874 7.64506 4.46444 7.50793 4.60158C7.37079 4.73872 7.29375 4.92471 7.29375 5.11865C7.29375 5.31259 7.37079 5.49859 7.50793 5.63572C7.64506 5.77286 7.83106 5.8499 8.025 5.8499ZM6.5625 8.7749H12.4125C12.6064 8.7749 12.7924 8.69786 12.9296 8.56072C13.0667 8.42359 13.1438 8.23759 13.1438 8.04365C13.1438 7.84971 13.0667 7.66372 12.9296 7.52658C12.7924 7.38944 12.6064 7.3124 12.4125 7.3124H6.5625C6.36856 7.3124 6.18256 7.38944 6.04543 7.52658C5.90829 7.66372 5.83125 7.84971 5.83125 8.04365C5.83125 8.23759 5.90829 8.42359 6.04543 8.56072C6.18256 8.69786 6.36856 8.7749 6.5625 8.7749ZM6.5625 11.6999H12.4125C12.6064 11.6999 12.7924 11.6229 12.9296 11.4857C13.0667 11.3486 13.1438 11.1626 13.1438 10.9687C13.1438 10.7747 13.0667 10.5887 12.9296 10.4516C12.7924 10.3144 12.6064 10.2374 12.4125 10.2374H6.5625C6.36856 10.2374 6.18256 10.3144 6.04543 10.4516C5.90829 10.5887 5.83125 10.7747 5.83125 10.9687C5.83125 11.1626 5.90829 11.3486 6.04543 11.4857C6.18256 11.6229 6.36856 11.6999 6.5625 11.6999ZM15.3375 1.4624H3.6375C3.44356 1.4624 3.25756 1.53944 3.12043 1.67658C2.98329 1.81372 2.90625 1.99971 2.90625 2.19365V15.3562C2.90625 15.492 2.94407 15.6251 3.01546 15.7406C3.08686 15.8561 3.18901 15.9495 3.31048 16.0102C3.43194 16.0709 3.56792 16.0966 3.70317 16.0844C3.83842 16.0723 3.96761 16.0226 4.07625 15.9412L5.58994 14.8077L7.09631 15.9412C7.22289 16.0361 7.37684 16.0874 7.53506 16.0874C7.69328 16.0874 7.84724 16.0361 7.97381 15.9412L9.4875 14.8077L11.0012 15.9412C11.1278 16.0361 11.2817 16.0874 11.4399 16.0874C11.5982 16.0874 11.7521 16.0361 11.8787 15.9412L13.3851 14.8077L14.8988 15.9412C15.0079 16.0225 15.1376 16.0718 15.2733 16.0834C15.4089 16.095 15.5451 16.0686 15.6666 16.007C15.7872 15.9462 15.8886 15.8532 15.9596 15.7384C16.0305 15.6235 16.0683 15.4912 16.0688 15.3562V2.19365C16.0688 1.99971 15.9917 1.81372 15.8546 1.67658C15.7174 1.53944 15.5314 1.4624 15.3375 1.4624ZM14.6063 13.8937L13.8238 13.3087C13.6972 13.2137 13.5433 13.1624 13.3851 13.1624C13.2268 13.1624 13.0729 13.2137 12.9463 13.3087L11.4399 14.4421L9.92625 13.3087C9.79967 13.2137 9.64572 13.1624 9.4875 13.1624C9.32928 13.1624 9.17533 13.2137 9.04875 13.3087L7.53506 14.4421L6.02869 13.3087C5.90211 13.2137 5.74816 13.1624 5.58994 13.1624C5.43172 13.1624 5.27776 13.2137 5.15119 13.3087L4.36875 13.8937V2.9249H14.6063V13.8937Z" fill="#A4B4CB"/>
</svg>
