<svg width="19" height="19" viewBox="0 0 19 19" fill="none" xmlns="http://www.w3.org/2000/svg">
<path d="M6.57999 8.99434C6.43536 8.99434 6.29398 9.03722 6.17373 9.11757C6.05347 9.19793 5.95975 9.31213 5.9044 9.44575C5.84905 9.57937 5.83457 9.7264 5.86279 9.86825C5.891 10.0101 5.96065 10.1404 6.06291 10.2427C6.16518 10.3449 6.29548 10.4146 6.43733 10.4428C6.57917 10.471 6.72621 10.4565 6.85982 10.4012C6.99344 10.3458 7.10765 10.2521 7.188 10.1318C7.26835 10.0116 7.31124 9.87021 7.31124 9.72559C7.31124 9.53165 7.23419 9.34565 7.09706 9.20851C6.95992 9.07138 6.77393 8.99434 6.57999 8.99434ZM9.50499 8.99434C9.36036 8.99434 9.21898 9.03722 9.09873 9.11757C8.97847 9.19793 8.88475 9.31213 8.8294 9.44575C8.77405 9.57937 8.75957 9.7264 8.78779 9.86825C8.816 10.0101 8.88565 10.1404 8.98791 10.2427C9.09018 10.3449 9.22048 10.4146 9.36233 10.4428C9.50418 10.471 9.65121 10.4565 9.78482 10.4012C9.91844 10.3458 10.0326 10.2521 10.113 10.1318C10.1933 10.0116 10.2362 9.87021 10.2362 9.72559C10.2362 9.53165 10.1592 9.34565 10.0221 9.20851C9.88492 9.07138 9.69893 8.99434 9.50499 8.99434ZM12.43 8.99434C12.2854 8.99434 12.144 9.03722 12.0237 9.11757C11.9035 9.19793 11.8097 9.31213 11.7544 9.44575C11.6991 9.57937 11.6846 9.7264 11.7128 9.86825C11.741 10.0101 11.8106 10.1404 11.9129 10.2427C12.0152 10.3449 12.1455 10.4146 12.2873 10.4428C12.4292 10.471 12.5762 10.4565 12.7098 10.4012C12.8434 10.3458 12.9576 10.2521 13.038 10.1318C13.1184 10.0116 13.1612 9.87021 13.1612 9.72559C13.1612 9.53165 13.0842 9.34565 12.9471 9.20851C12.8099 9.07138 12.6239 8.99434 12.43 8.99434ZM9.50499 2.41309C8.5447 2.41309 7.59381 2.60223 6.70661 2.96972C5.81942 3.3372 5.0133 3.87584 4.33427 4.55487C2.96291 5.92623 2.19249 7.78619 2.19249 9.72559C2.18609 11.4141 2.77075 13.0517 3.84511 14.3544L2.38261 15.8169C2.28114 15.9197 2.21241 16.0503 2.18508 16.1922C2.15775 16.334 2.17305 16.4808 2.22905 16.614C2.28978 16.7455 2.38824 16.8561 2.51193 16.9316C2.63562 17.0071 2.77895 17.0442 2.92374 17.0381H9.50499C11.4444 17.0381 13.3043 16.2677 14.6757 14.8963C16.0471 13.5249 16.8175 11.665 16.8175 9.72559C16.8175 7.78619 16.0471 5.92623 14.6757 4.55487C13.3043 3.18351 11.4444 2.41309 9.50499 2.41309ZM9.50499 15.5756H4.68605L5.36611 14.8955C5.43521 14.8278 5.49017 14.747 5.52783 14.6579C5.56549 14.5688 5.58508 14.4731 5.58549 14.3763C5.58274 14.1835 5.50389 13.9995 5.36611 13.8645C4.4086 12.908 3.81233 11.6492 3.67889 10.3024C3.54545 8.95562 3.88309 7.60423 4.6343 6.47849C5.3855 5.35274 6.50378 4.52227 7.79863 4.12858C9.09347 3.73488 10.4848 3.80232 11.7355 4.31939C12.9862 4.83646 14.0189 5.77119 14.6577 6.96431C15.2965 8.15743 15.5019 9.53513 15.2388 10.8627C14.9757 12.1902 14.2605 13.3855 13.215 14.2449C12.1695 15.1042 10.8584 15.5745 9.50499 15.5756Z" fill="#A4B4CB"/>
</svg>
