<svg width="19" height="19" viewBox="0 0 19 19" fill="none" xmlns="http://www.w3.org/2000/svg">
<path d="M16.2996 7.72211L14.9176 7.26142L15.5684 5.9598C15.6344 5.82356 15.6564 5.6702 15.6315 5.52088C15.6066 5.37157 15.536 5.23366 15.4294 5.12617L13.8719 3.56861C13.7638 3.46045 13.6246 3.38888 13.4737 3.36395C13.3229 3.33903 13.168 3.36202 13.0309 3.42967L11.7293 4.08049L11.2686 2.69842C11.22 2.55436 11.1276 2.42905 11.0044 2.33993C10.8812 2.2508 10.7333 2.2023 10.5813 2.20117H8.3875C8.2342 2.20078 8.08465 2.24857 7.95999 2.3378C7.83533 2.42703 7.74187 2.55318 7.69282 2.69842L7.23213 4.08049L5.9305 3.42967C5.79426 3.3637 5.6409 3.34163 5.49159 3.36652C5.34227 3.39141 5.20436 3.46202 5.09688 3.56861L3.53931 5.12617C3.43115 5.23423 3.35958 5.37347 3.33466 5.52431C3.30974 5.67515 3.33272 5.83001 3.40038 5.96711L4.05119 7.26874L2.66913 7.72942C2.52507 7.77808 2.39975 7.87043 2.31063 7.99363C2.22151 8.11683 2.17301 8.26475 2.17188 8.4168V10.6105C2.17148 10.7639 2.21928 10.9134 2.30851 11.0381C2.39773 11.1627 2.52389 11.2562 2.66913 11.3052L4.05119 11.7659L3.40038 13.0675C3.3344 13.2038 3.31234 13.3572 3.33722 13.5065C3.36211 13.6558 3.43272 13.7937 3.53931 13.9012L5.09688 15.4587C5.20493 15.5669 5.34417 15.6385 5.49501 15.6634C5.64585 15.6883 5.80071 15.6653 5.93782 15.5977L7.23944 14.9469L7.70013 16.3289C7.74918 16.4742 7.84265 16.6003 7.96731 16.6895C8.09196 16.7788 8.24151 16.8266 8.39481 16.8262H10.5886C10.7419 16.8266 10.8914 16.7788 11.0161 16.6895C11.1407 16.6003 11.2342 16.4742 11.2833 16.3289L11.7439 14.9469L13.0456 15.5977C13.1809 15.662 13.3328 15.6831 13.4806 15.6583C13.6284 15.6334 13.765 15.5638 13.8719 15.4587L15.4294 13.9012C15.5376 13.7931 15.6092 13.6539 15.6341 13.503C15.659 13.3522 15.636 13.1973 15.5684 13.0602L14.9176 11.7586L16.2996 11.2979C16.4437 11.2493 16.569 11.1569 16.6581 11.0337C16.7472 10.9105 16.7957 10.7626 16.7969 10.6105V8.4168C16.7973 8.2635 16.7495 8.11395 16.6603 7.98929C16.571 7.86463 16.4449 7.77117 16.2996 7.72211ZM15.3344 10.084L14.4569 10.3765C14.2551 10.442 14.07 10.5506 13.9143 10.6947C13.7587 10.8389 13.6363 11.0151 13.5556 11.2113C13.4749 11.4075 13.4378 11.6189 13.447 11.8308C13.4561 12.0428 13.5113 12.2502 13.6086 12.4387L14.0254 13.2723L13.2211 14.0767L12.4094 13.6379C12.2219 13.5445 12.0164 13.4925 11.8071 13.4853C11.5977 13.4782 11.3892 13.5161 11.1957 13.5965C11.0023 13.677 10.8284 13.798 10.6858 13.9515C10.5432 14.105 10.4352 14.2873 10.3692 14.4862L10.0767 15.3637H8.914L8.6215 14.4862C8.55605 14.2844 8.44748 14.0993 8.30334 13.9436C8.15919 13.788 7.98291 13.6656 7.78672 13.5849C7.59054 13.5042 7.37915 13.4671 7.16721 13.4763C6.95527 13.4854 6.74787 13.5406 6.55938 13.6379L5.72575 14.0547L4.92138 13.2504L5.36013 12.4387C5.45745 12.2502 5.51261 12.0428 5.52177 11.8308C5.53093 11.6189 5.49387 11.4075 5.41317 11.2113C5.33247 11.0151 5.21006 10.8389 5.05443 10.6947C4.89879 10.5506 4.71366 10.442 4.51188 10.3765L3.63438 10.084V8.9433L4.51188 8.6508C4.71366 8.58535 4.89879 8.47678 5.05443 8.33263C5.21006 8.18848 5.33247 8.0122 5.41317 7.81602C5.49387 7.61983 5.53093 7.40844 5.52177 7.19651C5.51261 6.98457 5.45745 6.77716 5.36013 6.58867L4.94332 5.77699L5.74769 4.97261L6.55938 5.38942C6.74787 5.48675 6.95527 5.5419 7.16721 5.55106C7.37915 5.56022 7.59054 5.52317 7.78672 5.44247C7.98291 5.36177 8.15919 5.23936 8.30334 5.08372C8.44748 4.92809 8.55605 4.74296 8.6215 4.54117L8.914 3.66367H10.0548L10.3473 4.54117C10.4127 4.74296 10.5213 4.92809 10.6654 5.08372C10.8096 5.23936 10.9858 5.36177 11.182 5.44247C11.3782 5.52317 11.5896 5.56022 11.8015 5.55106C12.0135 5.5419 12.2209 5.48675 12.4094 5.38942L13.243 4.97261L14.0474 5.77699L13.6086 6.58867C13.5152 6.7762 13.4632 6.98161 13.456 7.191C13.4489 7.40038 13.4868 7.60886 13.5672 7.80232C13.6477 7.99577 13.7687 8.16969 13.9222 8.31229C14.0757 8.45489 14.258 8.56285 14.4569 8.62886L15.3344 8.92136V10.084ZM9.48438 6.58867C8.90587 6.58867 8.34035 6.76022 7.85934 7.08163C7.37832 7.40303 7.00342 7.85985 6.78203 8.39433C6.56064 8.9288 6.50272 9.51692 6.61558 10.0843C6.72844 10.6517 7.00702 11.1729 7.41609 11.582C7.82516 11.991 8.34634 12.2696 8.91374 12.3825C9.48113 12.4953 10.0693 12.4374 10.6037 12.216C11.1382 11.9946 11.595 11.6197 11.9164 11.1387C12.2378 10.6577 12.4094 10.0922 12.4094 9.51367C12.4094 8.73792 12.1012 7.99393 11.5527 7.44539C11.0041 6.89684 10.2601 6.58867 9.48438 6.58867ZM9.48438 10.9762C9.19512 10.9762 8.91236 10.8904 8.67186 10.7297C8.43135 10.569 8.2439 10.3406 8.1332 10.0733C8.02251 9.80611 7.99355 9.51205 8.04998 9.22835C8.10641 8.94466 8.2457 8.68407 8.45023 8.47953C8.65477 8.275 8.91536 8.13571 9.19906 8.07928C9.48276 8.02284 9.77681 8.05181 10.0441 8.1625C10.3113 8.27319 10.5397 8.46065 10.7004 8.70115C10.8611 8.94166 10.9469 9.22442 10.9469 9.51367C10.9469 9.90155 10.7928 10.2735 10.5185 10.5478C10.2442 10.8221 9.87226 10.9762 9.48438 10.9762Z" fill="#A4B4CB"/>
</svg>
