<svg width="19" height="12" viewBox="0 0 19 12" fill="none" xmlns="http://www.w3.org/2000/svg">
<path d="M0.851562 1.61191C0.851562 0.804198 1.50635 0.149414 2.31406 0.149414H3.77656C4.58428 0.149414 5.23906 0.804198 5.23906 1.61191V3.07441C5.23906 3.88213 4.58428 4.53691 3.77656 4.53691H2.31406C1.50635 4.53691 0.851562 3.88213 0.851562 3.07441V1.61191Z" fill="#7468E4"/>
<path d="M0.851562 8.92441C0.851562 8.1167 1.50635 7.46191 2.31406 7.46191H3.77656C4.58428 7.46191 5.23906 8.1167 5.23906 8.92441V10.3869C5.23906 11.1946 4.58428 11.8494 3.77656 11.8494H2.31406C1.50635 11.8494 0.851562 11.1946 0.851562 10.3869V8.92441Z" fill="#7468E4"/>
<path d="M15.4766 3.80566C14.6688 3.80566 14.0141 4.46045 14.0141 5.26816V6.73066C14.0141 7.53838 14.6688 8.19316 15.4766 8.19316H16.9391C17.7468 8.19316 18.4016 7.53838 18.4016 6.73066V5.26816C18.4016 4.46045 17.7468 3.80566 16.9391 3.80566H15.4766Z" fill="#7468E4"/>
<path d="M7.43438 1.61182C7.03052 1.61182 6.70312 1.93921 6.70312 2.34307C6.70312 2.74692 7.03052 3.07432 7.43438 3.07432H8.16563C8.56948 3.07432 8.89688 3.40171 8.89688 3.80557V8.19307C8.89688 8.59692 8.56948 8.92432 8.16563 8.92432H7.43438C7.03052 8.92432 6.70312 9.25171 6.70312 9.65557C6.70312 10.0594 7.03052 10.3868 7.43438 10.3868H8.16563C9.3772 10.3868 10.3594 9.40464 10.3594 8.19307V6.73057H11.8219C12.2257 6.73057 12.5531 6.40317 12.5531 5.99932C12.5531 5.59546 12.2257 5.26807 11.8219 5.26807H10.3594V3.80557C10.3594 2.59399 9.3772 1.61182 8.16563 1.61182H7.43438Z" fill="#7468E4"/>
</svg>
