<svg width="15" height="15" viewBox="0 0 15 15" fill="none" xmlns="http://www.w3.org/2000/svg">
<path d="M6.20234 13.2433C6.20234 14.051 5.54756 14.7058 4.73984 14.7058C3.93213 14.7058 3.27734 14.051 3.27734 13.2433C3.27734 12.4355 3.93213 11.7808 4.73984 11.7808C5.54756 11.7808 6.20234 12.4355 6.20234 13.2433Z" fill="#22B573"/>
<path d="M14.7359 2.46391C15.0354 2.73486 15.0585 3.19729 14.7876 3.49676L13.0562 5.41039C12.9255 5.55486 12.931 5.77646 13.0688 5.91423L14.0311 6.87658C14.3167 7.16215 14.3167 7.62515 14.0311 7.91072C13.7456 8.19629 13.2826 8.19629 12.997 7.91072L12.1122 7.02593C11.9643 6.87807 11.7228 6.88411 11.5825 7.03916L7.84069 11.1749C7.56974 11.4744 7.10731 11.4975 6.80784 11.2265C6.50836 10.9556 6.48524 10.4932 6.7562 10.1937L13.7031 2.51555C13.974 2.21608 14.4364 2.19296 14.7359 2.46391Z" fill="#22B573"/>
<path d="M0.565741 9.07033C0.851312 8.78476 1.31431 8.78476 1.59988 9.07033L2.69676 10.1672C2.98233 10.4528 2.98233 10.9158 2.69676 11.2013C2.41119 11.4869 1.94819 11.4869 1.66262 11.2013L0.565741 10.1045C0.28017 9.8189 0.28017 9.3559 0.565741 9.07033Z" fill="#22B573"/>
<path d="M1.38539 6.96488L3.7046 9.28409C4.27574 9.85523 5.20174 9.85524 5.77289 9.28409L9.5546 5.50238C10.1257 4.93124 10.1257 4.00523 9.5546 3.43409L7.23539 1.11488C6.66425 0.543738 5.73824 0.543738 5.1671 1.11488L1.38539 4.89659C0.814246 5.46773 0.814246 6.39374 1.38539 6.96488Z" fill="#22B573"/>
</svg>
