<svg width="17" height="14" viewBox="0 0 17 14" fill="none" xmlns="http://www.w3.org/2000/svg">
<path d="M13.3383 0.343262H1.63828C0.830565 0.343262 0.175781 0.998045 0.175781 1.80576V10.5808C0.175781 11.3885 0.830565 12.0433 1.63828 12.0433H7.85391C8.05584 12.0433 8.21953 11.8796 8.21953 11.6776V8.38701C8.21953 7.5793 8.87431 6.92451 9.68203 6.92451H14.4352C14.6371 6.92451 14.8008 6.76082 14.8008 6.55889V1.80576C14.8008 0.998045 14.146 0.343262 13.3383 0.343262Z" fill="#51D5EC"/>
<path d="M9.68359 9.11846C9.68359 8.7146 10.011 8.38721 10.4148 8.38721H15.5336C15.9375 8.38721 16.2648 8.7146 16.2648 9.11846V12.7747C16.2648 13.1786 15.9375 13.506 15.5336 13.506H10.4148C10.011 13.506 9.68359 13.1786 9.68359 12.7747V9.11846Z" fill="#51D5EC"/>
</svg>
