<svg width="16" height="16" viewBox="0 0 16 16" fill="none" xmlns="http://www.w3.org/2000/svg">
<path fill-rule="evenodd" clip-rule="evenodd" d="M7.87109 15.3115C11.9097 15.3115 15.1836 12.0376 15.1836 7.99902C15.1836 3.96044 11.9097 0.686523 7.87109 0.686523C3.83251 0.686523 0.558594 3.96044 0.558594 7.99902C0.558594 12.0376 3.83251 15.3115 7.87109 15.3115ZM8.60234 4.34277C8.60234 3.93892 8.27495 3.61152 7.87109 3.61152C7.46724 3.61152 7.13984 3.93892 7.13984 4.34277V7.99902C7.13984 8.19296 7.21689 8.37896 7.35402 8.5161L9.18215 10.3442C9.46772 10.6298 9.93072 10.6298 10.2163 10.3442C10.5019 10.0586 10.5019 9.59565 10.2163 9.31008L8.60234 7.69613V4.34277Z" fill="#FFB648"/>
</svg>
